<?xml version="1.0" encoding="UTF-8" standalone="no"?>
<svg width="40px" height="40px" viewBox="0 0 40 40" version="1.1" xmlns="http://www.w3.org/2000/svg" xmlns:xlink="http://www.w3.org/1999/xlink" xmlns:sketch="http://www.bohemiancoding.com/sketch/ns">
    <!-- Generator: Sketch 3.2.2 (9983) - http://www.bohemiancoding.com/sketch -->
    <title>add_hover</title>
    <desc>Created with Sketch.</desc>
    <defs></defs>
    <g id="save-svg" stroke="none" stroke-width="1" fill="none" fill-rule="evenodd" sketch:type="MSPage">
        <g id="add_hover" sketch:type="MSArtboardGroup">
            <g id="icon_add-user-fill" sketch:type="MSLayerGroup">
                <rect id="Padding" sketch:type="MSShapeGroup" x="0" y="0" width="40" height="40"></rect>
                <path d="M21,20 L21,11.5082041 C21,11.2266151 20.7761424,11 20.5,11 C20.2319336,11 20,11.2275307 20,11.5082041 L20,20 L11.5082041,20 C11.2266151,20 11,20.2238576 11,20.5 C11,20.7680664 11.2275307,21 11.5082041,21 L20,21 L20,29.4917959 C20,29.7733849 20.2238576,30 20.5,30 C20.7680664,30 21,29.7724693 21,29.4917959 L21,21 L29.4917959,21 C29.7733849,21 30,20.7761424 30,20.5 C30,20.2319336 29.7724693,20 29.4917959,20 L21,20 Z M20.5,37 C29.6126984,37 37,29.6126984 37,20.5 C37,11.3873016 29.6126984,4 20.5,4 C11.3873016,4 4,11.3873016 4,20.5 C4,29.6126984 11.3873016,37 20.5,37 Z M20.5,36 C29.0604136,36 36,29.0604136 36,20.5 C36,11.9395864 29.0604136,5 20.5,5 C11.9395864,5 5,11.9395864 5,20.5 C5,29.0604136 11.9395864,36 20.5,36 Z" id="Oval-43" fill="#FFFFFF" sketch:type="MSShapeGroup"></path>
            </g>
        </g>
    </g>
</svg>