<?xml version="1.0" encoding="UTF-8" standalone="no"?>
<svg width="40px" height="40px" viewBox="0 0 40 40" version="1.1" xmlns="http://www.w3.org/2000/svg" xmlns:xlink="http://www.w3.org/1999/xlink" xmlns:sketch="http://www.bohemiancoding.com/sketch/ns">
    <!-- Generator: Sketch 3.3 (11970) - http://www.bohemiancoding.com/sketch -->
    <title>camera_toggled</title>
    <desc>Created with Sketch.</desc>
    <defs></defs>
    <g id="save-svg" stroke="none" stroke-width="1" fill="none" fill-rule="evenodd" sketch:type="MSPage">
        <g id="camera_toggled" sketch:type="MSArtboardGroup">
            <g id="icon_video-OFF" sketch:type="MSLayerGroup">
                <rect id="Padding-3" sketch:type="MSShapeGroup" x="0" y="0" width="40" height="40"></rect>
                <g id="mic-stand" transform="translate(3.000000, 7.000000)" sketch:type="MSShapeGroup">
                    <path d="M10.5707704,4 L20.9991358,4 C22.1041826,4 23,4.89821238 23,5.99079514 L23,22.0092049 C23,22.756243 22.58377,23.407178 21.9721323,23.7477381 L10.5707704,4 Z M3.64914704,4 L2.00086422,4 C0.901627257,4 0,4.89130934 0,5.99079514 L0,22.0092049 C0,23.1017876 0.895817426,24 2.00086422,24 L15.1961524,24 L3.64914704,4 L3.64914704,4 Z M34,23 L25,16.25 L25,11.75 L34,5 L34,23 Z" id="Rectangle-21" fill="#FFFFFF"></path>
                    <rect id="Rectangle-71-Copy" fill="#D8334A" x="12.1380126" y="-1.79311259" width="1" height="30.5" rx="40"></rect>
                </g>
            </g>
        </g>
    </g>
</svg>