<?xml version="1.0" encoding="UTF-8" standalone="no"?>
<svg width="42px" height="40px" viewBox="0 0 42 40" version="1.1" xmlns="http://www.w3.org/2000/svg" xmlns:xlink="http://www.w3.org/1999/xlink" xmlns:sketch="http://www.bohemiancoding.com/sketch/ns">
    <!-- Generator: Sketch 3.2.2 (9983) - http://www.bohemiancoding.com/sketch -->
    <title>lock_toggled</title>
    <desc>Created with Sketch.</desc>
    <defs></defs>
    <g id="save-svg" stroke="none" stroke-width="1" fill="none" fill-rule="evenodd" sketch:type="MSPage">
        <g id="lock_toggled" sketch:type="MSArtboardGroup" transform="translate(0.500000, 0.000000)">
            <g id="icon_lock-fill-ON" sketch:type="MSLayerGroup">
                <rect id="Padding-4" sketch:type="MSShapeGroup" x="0.5" y="0" width="40" height="40"></rect>
                <path d="M21.5,27.9585208 C22.9188567,27.7204817 24,26.4864981 24,25 C24,23.3431458 22.6568542,22 21,22 C19.3431458,22 18,23.3431458 18,25 C18,26.4864981 19.0811433,27.7204817 20.5,27.9585208 L20.5,31.5023012 C20.5,31.7851562 20.7238576,32 21,32 C21.2680664,32 21.5,31.7771727 21.5,31.5023012 L21.5,27.9585208 L21.5,27.9585208 Z M13.5,17 L13.5,12 L12.5,12 L12.5,17 L12.2972573,17 C10.7529135,17 9.5,18.2551766 9.5,19.8035154 L9.5,33.1964846 C9.5,34.7533569 10.7523747,36 12.2972573,36 L29.7027427,36 C31.2470865,36 32.5,34.7448234 32.5,33.1964846 L32.5,19.8035154 C32.5,18.2466431 31.2476253,17 29.7027427,17 L29.5,17 L29.5,12 L28.5,12 L28.5,17 L13.5,17 Z M29.4855382,12 C29.2267293,7.53831026 25.526573,4 21,4 C16.473427,4 12.7732707,7.53831026 12.5144618,12 L13.5164023,12 C13.7736953,8.09098409 17.0258787,5 21,5 C24.9741213,5 28.2263047,8.09098409 28.4835977,12 L29.4855382,12 L29.4855382,12 Z M21,27 C22.1045695,27 23,26.1045695 23,25 C23,23.8954305 22.1045695,23 21,23 C19.8954305,23 19,23.8954305 19,25 C19,26.1045695 19.8954305,27 21,27 Z" id="Oval-17" fill="#3BAFDA" sketch:type="MSShapeGroup"></path>
            </g>
        </g>
    </g>
</svg>