<?xml version="1.0" encoding="UTF-8" standalone="no"?>
<svg width="40px" height="40px" viewBox="0 0 40 40" version="1.1" xmlns="http://www.w3.org/2000/svg" xmlns:xlink="http://www.w3.org/1999/xlink" xmlns:sketch="http://www.bohemiancoding.com/sketch/ns">
    <!-- Generator: Sketch 3.2.2 (9983) - http://www.bohemiancoding.com/sketch -->
    <title>mic_hover</title>
    <desc>Created with Sketch.</desc>
    <defs></defs>
    <g id="save-svg" stroke="none" stroke-width="1" fill="none" fill-rule="evenodd" sketch:type="MSPage">
        <g id="mic_hover" sketch:type="MSArtboardGroup">
            <g id="icon_mic-fill" sketch:type="MSLayerGroup">
                <rect id="Padding-3" sketch:type="MSShapeGroup" x="0" y="0" width="40" height="40"></rect>
                <path d="M32,19 L32,18.5046844 C32,18.214035 31.7761424,18 31.5,18 C31.2319336,18 31,18.2259549 31,18.5046844 L31,19 L32,19 Z" id="Rectangle-24" fill="#FFFFFF" sketch:type="MSShapeGroup"></path>
                <path d="M10,19 L10,18.5046844 C10,18.214035 9.77614237,18 9.5,18 C9.23193359,18 9,18.2259549 9,18.5046844 L9,19 L10,19 Z" id="Rectangle-24" fill="#FFFFFF" sketch:type="MSShapeGroup"></path>
                <path d="M29.157834,27.0693828 C30.9275681,25.0468216 32,22.3986507 32,19.5 C32,19.3324725 31.9964178,19.1657817 31.9893258,19 L30.9883049,19 C30.9960726,19.1656914 31,19.332387 31,19.5 C31,22.0232811 30.1099432,24.3386782 28.6266594,26.1493615 L29.157834,27.0693828 Z M16.0897418,4.4347831 C17.3285526,3.53244636 18.8533927,3 20.5,3 C24.6421356,3 28,6.36236782 28,10.4950287 L28,19.5049713 C28,20.8846217 27.6260468,22.177207 26.9743645,23.2875026 L26.3840118,22.2649818 C26.7790196,21.4268993 27,20.4908887 27,19.5034217 L27,10.4965783 C27,6.91007585 24.0898509,4 20.5,4 C19.0351486,4 17.6814923,4.48628414 16.5930036,5.30645815 L16.0897418,4.4347831 Z M24.1618606,30.4047064 C23.1621605,30.7402736 22.1011334,30.9422204 21,30.9893258 L21,30.9893258 L21,36 L27.5009232,36 C27.7765557,36 28,36.2319336 28,36.5 C28,36.7761424 27.7763174,37 27.5009232,37 L13.4990768,37 C13.2234443,37 13,36.7680664 13,36.5 C13,36.2238576 13.2236826,36 13.4990768,36 L20,36 L20,36 L20,30.9893258 C13.8806919,30.7275476 9,25.6837471 9,19.5 C9,19.3324725 9.0035822,19.1657817 9.01067419,19 L9.01067419,19 L10.0116951,19 C10.0039274,19.1656914 10,19.332387 10,19.5 C10,25.2989899 14.7010101,30 20.5,30 C21.5976763,30 22.6560123,29.8315639 23.6505717,29.519128 L24.1618606,30.4047064 L24.1618606,30.4047064 Z M22.0974688,26.8290749 C21.5825023,26.9410277 21.0479945,27 20.5,27 C16.3578644,27 13,23.6376322 13,19.5049713 L13,11.0717968 L14,12.8038476 L14,19.5034217 C14,23.0899242 16.9101491,26 20.5,26 C20.8637151,26 21.220575,25.9700204 21.5682228,25.912394 L22.0974688,26.8290749 Z" id="Rectangle-21" fill="#FFFFFF" sketch:type="MSShapeGroup"></path>
            </g>
            <rect id="Rectangle-391" fill="#FFFFFF" sketch:type="MSShapeGroup" transform="translate(20.500000, 18.000000) rotate(-30.000000) translate(-20.500000, -18.000000) " x="20" y="3" width="1" height="30" rx="40"></rect>
        </g>
    </g>
</svg>