<?xml version="1.0" encoding="UTF-8" standalone="no"?>
<svg width="40px" height="40px" viewBox="0 0 40 40" version="1.1" xmlns="http://www.w3.org/2000/svg" xmlns:xlink="http://www.w3.org/1999/xlink" xmlns:sketch="http://www.bohemiancoding.com/sketch/ns">
    <!-- Generator: Sketch 3.2.2 (9983) - http://www.bohemiancoding.com/sketch -->
    <title>snapshot</title>
    <desc>Created with Sketch.</desc>
    <defs></defs>
    <g id="save-svg" stroke="none" stroke-width="1" fill="none" fill-rule="evenodd" sketch:type="MSPage">
        <g id="snapshot" sketch:type="MSArtboardGroup">
            <g id="icon_snapshot-fill" sketch:type="MSLayerGroup">
                <rect id="Padding-5" sketch:type="MSShapeGroup" x="0" y="0" width="40" height="40"></rect>
                <path d="M13.7246509,12 L6.99161703,12 C5.89784041,12 5,12.8942762 5,13.9974219 L5,29.0025781 C5,30.1090746 5.89167732,31 6.99161703,31 L33.008383,31 C34.1021596,31 35,30.1057238 35,29.0025781 L35,13.9974219 C35,12.8909254 34.1083227,12 33.008383,12 L26.4669817,12 C26.4650882,11.9968804 26.4631727,11.9937574 26.4612351,11.9906311 L25.2332909,10.0093689 C24.8824864,9.44335318 24.2055568,9 23.7094812,9 L16.4821545,9 C15.9951114,9 15.303846,9.45190985 14.9583447,10.0093689 L13.7304006,11.9906311 C13.7284627,11.9937578 13.7265462,11.9968808 13.7246509,12 L13.7246509,12 Z M12.9395773,11 L6.99610022,11 C5.33425951,11 4,12.3470803 4,14.008788 L4,28.991212 C4,30.6544098 5.34139976,32 6.99610022,32 L33.0038998,32 C34.6657405,32 36,30.6529197 36,28.991212 L36,14.008788 C36,12.3455902 34.6586002,11 33.0038998,11 L27.0604193,11 C27.058321,10.9968804 27.0561982,10.9937574 27.054051,10.9906311 L25.6932634,9.0093689 C25.3045076,8.44335318 24.5543453,8 24.0046024,8 L15.9953976,8 C15.4556644,8 14.6896154,8.45190985 14.3067366,9.0093689 L12.945949,10.9906311 C12.9438015,10.9937578 12.9416776,10.9968808 12.9395773,11 L12.9395773,11 Z M20,28 C23.8659932,28 27,24.8659932 27,21 C27,17.1340068 23.8659932,14 20,14 C16.1340068,14 13,17.1340068 13,21 C13,24.8659932 16.1340068,28 20,28 Z M20,27 C23.3137085,27 26,24.3137085 26,21 C26,17.6862915 23.3137085,15 20,15 C16.6862915,15 14,17.6862915 14,21 C14,24.3137085 16.6862915,27 20,27 Z M30.5,18.0294573 C31.3284271,18.0294573 32,17.3512902 32,16.5147287 C32,15.6781671 31.3284271,15 30.5,15 C29.6715729,15 29,15.6781671 29,16.5147287 C29,17.3512902 29.6715729,18.0294573 30.5,18.0294573 Z" id="Rectangle-98" fill="#AAB2B9" sketch:type="MSShapeGroup"></path>
            </g>
        </g>
    </g>
</svg>