<?xml version="1.0" encoding="UTF-8" standalone="no"?>
<svg width="41px" height="40px" viewBox="0 0 41 40" version="1.1" xmlns="http://www.w3.org/2000/svg" xmlns:xlink="http://www.w3.org/1999/xlink" xmlns:sketch="http://www.bohemiancoding.com/sketch/ns">
    <!-- Generator: Sketch 3.2.2 (9983) - http://www.bohemiancoding.com/sketch -->
    <title>attach_selected</title>
    <desc>Created with Sketch.</desc>
    <defs></defs>
    <g id="save-svg" stroke="none" stroke-width="1" fill="none" fill-rule="evenodd" sketch:type="MSPage">
        <g id="attach_selected" sketch:type="MSArtboardGroup" transform="translate(1.000000, 0.000000)">
            <g id="icon_attachement-fill-ON" sketch:type="MSLayerGroup">
                <rect id="Padding" sketch:type="MSShapeGroup" x="0" y="0" width="40" height="40"></rect>
                <path d="M17,8 C17,5.790861 19.6862915,4 23,4 C26.3137085,4 29,5.790861 29,8 L29,30 C29,33.3137085 25.1944204,36 20.5,36 C15.8055796,36 12,33.3137085 12,30 L12,9.00052172 L12,7.99895656 C12,7.44724809 12.4438648,7 13,7 C13.5522847,7 14,7.44266033 14,7.99895656 L14,9.00052172 L14,29.5 C14,31.9852814 16.9101491,34 20.5,34 C24.0898509,34 27,31.9852814 27,29.5 L27,8.5 C27,7.11928813 25.209139,6 23,6 C20.790861,6 19,7.11928813 19,8.5 L19,25.5 L17,25.5 L17,8 Z M24,15.0005217 L24,13.9989566 C24,13.4426603 23.5522847,13 23,13 C22.4438648,13 22,13.4472481 22,13.9989566 L22,15.0005217 L22,25.5 L24,25.5 L24,15.0005217 Z M24,25.5 C24,27.4329966 22.4329966,29 20.5,29 C18.5670034,29 17,27.4329966 17,25.5 L19,25.5 C19,26.3284271 19.6715729,27 20.5,27 C21.3284271,27 22,26.3284271 22,25.5 L24,25.5 Z" id="Oval-44" fill="#3BAFDA" sketch:type="MSShapeGroup"></path>
            </g>
        </g>
    </g>
</svg>