<?xml version="1.0" encoding="UTF-8" standalone="no"?>
<svg width="41px" height="40px" viewBox="0 0 41 40" version="1.1" xmlns="http://www.w3.org/2000/svg" xmlns:xlink="http://www.w3.org/1999/xlink" xmlns:sketch="http://www.bohemiancoding.com/sketch/ns">
    <!-- Generator: Sketch 3.2.2 (9983) - http://www.bohemiancoding.com/sketch -->
    <title>attach_active</title>
    <desc>Created with Sketch.</desc>
    <defs></defs>
    <g id="save-svg" stroke="none" stroke-width="1" fill="none" fill-rule="evenodd" sketch:type="MSPage">
        <g id="attach_active" sketch:type="MSArtboardGroup" transform="translate(1.000000, 0.000000)">
            <g id="icon_attachement-fill" sketch:type="MSLayerGroup">
                <rect id="Padding" sketch:type="MSShapeGroup" x="0" y="0" width="40" height="40"></rect>
                <path d="M23,15.2523055 L23,13.495389 C23,13.2157526 22.7761424,13 22.5,13 C22.2319336,13 22,13.2217932 22,13.495389 L22,15.2523055 L22,26 L23,26 L23,15.2523055 Z M13,9.25230551 L13,7.49538898 C13,7.2157526 12.7761424,7 12.5,7 C12.2319336,7 12,7.2217932 12,7.49538898 L12,9.25230551 L12,30 L13,30 L13,9.25230551 Z M23,26 C23,27.6568542 21.6568542,29 20,29 C18.3431458,29 17,27.6568542 17,26 L18,26 C18,27.1045695 18.8954305,28 20,28 C21.1045695,28 22,27.1045695 22,26 L23,26 L23,26 Z M28,30 C28,33.3137085 24.418278,36 20,36 C15.581722,36 12,33.3137085 12,30 L13,30 C13,32.7614237 16.1340068,35 20,35 C23.8659932,35 27,32.7614237 27,30 L28,30 L28,30 Z M28,8 C28,5.790861 25.5375661,4 22.5,4 C19.4624339,4 17,5.790861 17,8 L18,8 C18,6.34314575 20.0147186,5 22.5,5 C24.9852814,5 27,6.34314575 27,8 L28,8 L28,8 Z M27,8 L28,8 L28,30 L27,30 L27,8 Z M17,8 L18,8 L18,26 L17,26 L17,8 Z" id="Oval-44" fill="#3BAFDA" sketch:type="MSShapeGroup"></path>
            </g>
        </g>
    </g>
</svg>