<?xml version="1.0" encoding="UTF-8" standalone="no"?>
<svg width="40px" height="40px" viewBox="0 0 40 40" version="1.1" xmlns="http://www.w3.org/2000/svg" xmlns:xlink="http://www.w3.org/1999/xlink" xmlns:sketch="http://www.bohemiancoding.com/sketch/ns">
    <!-- Generator: Sketch 3.2.2 (9983) - http://www.bohemiancoding.com/sketch -->
    <title>camera_toggled</title>
    <desc>Created with Sketch.</desc>
    <defs></defs>
    <g id="save-svg" stroke="none" stroke-width="1" fill="none" fill-rule="evenodd" sketch:type="MSPage">
        <g id="camera_toggled" sketch:type="MSArtboardGroup">
            <g id="icon_video-OFF" sketch:type="MSLayerGroup">
                <rect id="Padding-3" sketch:type="MSShapeGroup" x="0" y="0" width="40" height="40"></rect>
                <g id="mic-stand" transform="translate(3.000000, 7.000000)" fill="#3BAFDA" sketch:type="MSShapeGroup">
                    <path d="M10.5707704,4 L20.9991358,4 C22.1041826,4 23,4.89821238 23,5.99079514 L23,22.0092049 C23,22.756243 22.58377,23.407178 21.9721323,23.7477381 L10.5707704,4 L10.5707704,4 Z M3.64914704,4 L2.00086422,4 C0.901627257,4 0,4.89130934 0,5.99079514 L0,22.0092049 C0,23.1017876 0.895817426,24 2.00086422,24 L15.1961524,24 L3.64914704,4 L3.64914704,4 Z M34,23 L25,16.25 L25,11.75 L34,5 L34,23 Z M4.82793065,0.936422694 C4.68877215,0.695393096 4.77682228,0.384033203 5.0089746,0.25 C5.24812091,0.111928813 5.55597042,0.197424563 5.69395606,0.436422694 L20.4400185,25.9773521 C20.579177,26.2183817 20.4911269,26.5297416 20.2589746,26.6637748 C20.0198283,26.801846 19.7119788,26.7163503 19.5739931,26.4773521 L4.82793065,0.936422694 Z" id="Rectangle-21"></path>
                </g>
            </g>
        </g>
    </g>
</svg>