<?xml version="1.0" encoding="UTF-8" standalone="no"?>
<svg width="41px" height="40px" viewBox="0 0 41 40" version="1.1" xmlns="http://www.w3.org/2000/svg" xmlns:xlink="http://www.w3.org/1999/xlink" xmlns:sketch="http://www.bohemiancoding.com/sketch/ns">
    <!-- Generator: Sketch 3.2.2 (9983) - http://www.bohemiancoding.com/sketch -->
    <title>clear_selected</title>
    <desc>Created with Sketch.</desc>
    <defs></defs>
    <g id="save-svg" stroke="none" stroke-width="1" fill="none" fill-rule="evenodd" sketch:type="MSPage">
        <g id="clear_selected" sketch:type="MSArtboardGroup">
            <g id="icon_trash-fill-ON" sketch:type="MSLayerGroup">
                <rect id="Padding-5" sketch:type="MSShapeGroup" x="5.68434189e-14" y="0" width="40" height="40"></rect>
                <g id="trash" transform="translate(6.000000, 3.253462)" fill="#3BAFDA" sketch:type="MSShapeGroup">
                    <path d="M2,6.74653846 L3,29.7465385 C3,31.4965385 4.25171213,32.7465385 5.05566406,32.7465385 L21.777832,32.7465385 C22.7832579,32.7465385 24,31.4918998 24,29.7465385 L25,6.74653846 L2,6.74653846 Z M8,11.2369817 C8,10.9661174 8.23193359,10.7465385 8.5,10.7465385 C8.77614237,10.7465385 9,10.9614813 9,11.2369817 L9,27.2560952 C9,27.5269595 8.76806641,27.7465385 8.5,27.7465385 C8.22385763,27.7465385 8,27.5315956 8,27.2560952 L8,11.2369817 Z M13,11.2369817 C13,10.9661174 13.2319336,10.7465385 13.5,10.7465385 C13.7761424,10.7465385 14,10.9614813 14,11.2369817 L14,27.2560952 C14,27.5269595 13.7680664,27.7465385 13.5,27.7465385 C13.2238576,27.7465385 13,27.5315956 13,27.2560952 L13,11.2369817 Z M18,11.2369817 C18,10.9661174 18.2319336,10.7465385 18.5,10.7465385 C18.7761424,10.7465385 19,10.9614813 19,11.2369817 L19,27.2560952 C19,27.5269595 18.7680664,27.7465385 18.5,27.7465385 C18.2238576,27.7465385 18,27.5315956 18,27.2560952 L18,11.2369817 Z M1.13686838e-13,6.24653846 C1.13686838e-13,5.97039609 0.233416557,5.74653846 0.491683915,5.74653846 L26.5083161,5.74653846 C26.7798656,5.74653846 27,5.97847206 27,6.24653846 C27,6.52268084 26.7665834,6.74653846 26.5083161,6.74653846 L0.491683915,6.74653846 C0.220134387,6.74653846 1.13686838e-13,6.51460487 1.13686838e-13,6.24653846 Z" id="Shape"></path>
                    <path d="M20,6.74653846 L20,2.74463982 C20,1.63324481 19.1033337,0.746538462 17.9972399,0.746538462 L9.00276013,0.746538462 C7.89354265,0.746538462 7,1.64111891 7,2.74463982 L7,6.74653846 L8.01634016,6.74653846 C8.00559261,6.68163688 8,6.61490613 8,6.54676947 L8,2.94630745 C8,2.28369334 8.53055286,1.74653846 9.19813271,1.74653846 L17.8018673,1.74653846 C18.4635777,1.74653846 19,2.27899844 19,2.94630745 L19,6.54676947 C19,6.61483157 18.9944022,6.68156996 18.9836331,6.74653846 L20,6.74653846 Z" id="Rectangle-104"></path>
                </g>
            </g>
        </g>
    </g>
</svg>