<?xml version="1.0" encoding="UTF-8" standalone="no"?>
<svg width="40px" height="40px" viewBox="0 0 40 40" version="1.1" xmlns="http://www.w3.org/2000/svg" xmlns:xlink="http://www.w3.org/1999/xlink" xmlns:sketch="http://www.bohemiancoding.com/sketch/ns">
    <!-- Generator: Sketch 3.2.2 (9983) - http://www.bohemiancoding.com/sketch -->
    <title>clear</title>
    <desc>Created with Sketch.</desc>
    <defs></defs>
    <g id="save-svg" stroke="none" stroke-width="1" fill="none" fill-rule="evenodd" sketch:type="MSPage">
        <g id="clear" sketch:type="MSArtboardGroup">
            <g id="icon_trash-fill" sketch:type="MSLayerGroup">
                <rect id="Padding-5" sketch:type="MSShapeGroup" x="0" y="0" width="40" height="40"></rect>
                <path d="M26,10 L26,5.99810135 C26,4.88670635 25.1033337,4 23.9972399,4 L15.0027601,4 C13.8935426,4 13,4.89458045 13,5.99810135 L13,10 L14.0163402,10 C14.0055926,9.93509842 14,9.86836767 14,9.80023101 L14,6.19976899 C14,5.53715487 14.5305529,5 15.1981327,5 L23.8018673,5 C24.4635777,5 25,5.53245997 25,6.19976899 L25,9.80023101 C25,9.86829311 24.9944022,9.9350315 24.9836331,10 L26,10 L26,10 Z M8,10 L9,33 C9,34.75 10.2517121,36 11.0556641,36 L27.777832,36 C28.7832579,36 30,34.7453613 30,33 L31,10 L8,10 Z M9,10 L10,32.9166667 C10.0622559,34.0246999 11.0050874,35 12,35 L27,35 C28.1788671,35 28.9970703,34.0997229 28.9970703,32.9166667 L30,10 L9,10 Z" id="Rectangle-104" fill="#AAB2B9" sketch:type="MSShapeGroup"></path>
                <rect id="Rectangle-103" fill="#AAB2B9" sketch:type="MSShapeGroup" x="6" y="9" width="27" height="1" rx="40"></rect>
                <path d="M14,14.4904432 C14,14.2195789 14.2319336,14 14.5,14 C14.7761424,14 15,14.2149428 15,14.4904432 L15,30.5095568 C15,30.7804211 14.7680664,31 14.5,31 C14.2238576,31 14,30.7850572 14,30.5095568 L14,14.4904432 Z M19,14.4904432 C19,14.2195789 19.2319336,14 19.5,14 C19.7761424,14 20,14.2149428 20,14.4904432 L20,30.5095568 C20,30.7804211 19.7680664,31 19.5,31 C19.2238576,31 19,30.7850572 19,30.5095568 L19,14.4904432 Z M24,14.4904432 C24,14.2195789 24.2319336,14 24.5,14 C24.7761424,14 25,14.2149428 25,14.4904432 L25,30.5095568 C25,30.7804211 24.7680664,31 24.5,31 C24.2238576,31 24,30.7850572 24,30.5095568 L24,14.4904432 Z" id="Rectangle-100" fill="#AAB2B9" sketch:type="MSShapeGroup"></path>
            </g>
        </g>
    </g>
</svg>