<?xml version="1.0" encoding="UTF-8" standalone="no"?>
<svg width="40px" height="40px" viewBox="0 0 40 40" version="1.1" xmlns="http://www.w3.org/2000/svg" xmlns:xlink="http://www.w3.org/1999/xlink" xmlns:sketch="http://www.bohemiancoding.com/sketch/ns">
    <!-- Generator: Sketch 3.2.2 (9983) - http://www.bohemiancoding.com/sketch -->
    <title>end-call_selected</title>
    <desc>Created with Sketch.</desc>
    <defs></defs>
    <g id="save-svg" stroke="none" stroke-width="1" fill="none" fill-rule="evenodd" sketch:type="MSPage">
        <g id="end-call_selected" sketch:type="MSArtboardGroup">
            <g id="icon_end-call-fill-ON" sketch:type="MSLayerGroup">
                <rect id="Padding-2" sketch:type="MSShapeGroup" x="0" y="0" width="40" height="40"></rect>
                <path d="M35.6660131,11.4376026 C35.5996639,11.3601788 35.5300939,11.2827551 35.4579471,11.2073688 C32.9547133,8.56749109 27.7659464,7.08353614 20.8224679,7 L20.1435157,7.00067916 C13.2142089,7.08964854 8.04090198,8.57292433 5.54153317,11.2073688 C5.47003061,11.2827551 5.40110472,11.3594997 5.33282299,11.4389609 C3.89890676,13.1232667 3.8982626,15.1600543 4.08700359,16.9319712 C4.1378928,17.5174034 4.37494634,17.9683627 4.81362421,18.3092988 C5.40432555,18.7677288 6.32419634,19 7.49851318,19 C8.31274054,19 9.25000385,18.8886185 10.2845364,18.663818 C11.9561503,18.3004697 13.0074312,17.8719226 13.499575,17.3523686 C13.8712595,16.9611749 13.9537129,16.4959534 14.0000929,15.5410606 C14.0058904,15.4167751 14.0116879,15.2911314 14.0232829,15.1145509 C14.0207063,14.9169166 14.0361663,13.8988624 14.6056101,13.2611353 C14.7801794,13.0777633 15.0887355,12.8550003 15.5634868,12.8393797 C15.7316144,12.8346256 25.2685101,12.8346256 25.4359935,12.8393797 C25.911389,12.8550003 26.2193009,13.0777633 26.4222136,13.2916973 C26.9639582,13.8995416 26.9794182,14.9169166 26.9781299,15.1607335 C26.9877924,15.2911314 26.994234,15.4167751 27.0019641,15.6015055 C27.0464116,16.4952742 27.128865,16.9604958 27.4999053,17.3523686 C27.9926932,17.8719226 29.0439741,18.3004697 30.7155881,18.663818 C31.7501206,18.8886185 32.6867398,19 33.5009671,19 C34.675284,19 35.5951547,18.7677288 36.1871444,18.3086196 C36.6238898,17.9683627 36.8615875,17.5174034 36.9131209,16.9319712 C37.1018619,15.1600543 37.1005735,13.1225876 35.6660131,11.4376026 L35.6660131,11.4376026 Z" id="Imported-Layers" fill="#D8334A" sketch:type="MSShapeGroup"></path>
            </g>
        </g>
    </g>
</svg>