<?xml version="1.0" encoding="UTF-8" standalone="no"?>
<svg width="40px" height="40px" viewBox="0 0 40 40" version="1.1" xmlns="http://www.w3.org/2000/svg" xmlns:xlink="http://www.w3.org/1999/xlink" xmlns:sketch="http://www.bohemiancoding.com/sketch/ns">
    <!-- Generator: Sketch 3.2.2 (9983) - http://www.bohemiancoding.com/sketch -->
    <title>end-call</title>
    <desc>Created with Sketch.</desc>
    <defs></defs>
    <g id="save-svg" stroke="none" stroke-width="1" fill="none" fill-rule="evenodd" sketch:type="MSPage">
        <g id="end-call" sketch:type="MSArtboardGroup">
            <g id="icon_end-call-fill" sketch:type="MSLayerGroup">
                <rect id="Padding-2" sketch:type="MSShapeGroup" x="0" y="0" width="40" height="40"></rect>
                <path d="M35.6660131,11.4376026 C35.5996639,11.3601788 35.5300939,11.2827551 35.4579471,11.2073688 C32.9547133,8.56749109 27.7659464,7.08353614 20.8224679,7 L20.1435157,7.00067916 C13.2142089,7.08964854 8.04090198,8.57292433 5.54153317,11.2073688 C5.47003061,11.2827551 5.40110472,11.3594997 5.33282299,11.4389609 C3.89890676,13.1232667 3.8982626,15.1600543 4.08700359,16.9319712 C4.1378928,17.5174034 4.37494634,17.9683627 4.81362421,18.3092988 C5.40432555,18.7677288 6.32419634,19 7.49851318,19 C8.31274054,19 9.25000385,18.8886185 10.2845364,18.663818 C11.9561503,18.3004697 13.0074312,17.8719226 13.499575,17.3523686 C13.8712595,16.9611749 13.9537129,16.4959534 14.0000929,15.5410606 C14.0058904,15.4167751 14.0116879,15.2911314 14.0232829,15.1145509 C14.0207063,14.9169166 14.0361663,13.8988624 14.6056101,13.2611353 C14.7801794,13.0777633 15.0887355,12.8550003 15.5634868,12.8393797 C15.7316144,12.8346256 25.2685101,12.8346256 25.4359935,12.8393797 C25.911389,12.8550003 26.2193009,13.0777633 26.4222136,13.2916973 C26.9639582,13.8995416 26.9794182,14.9169166 26.9781299,15.1607335 C26.9877924,15.2911314 26.994234,15.4167751 27.0019641,15.6015055 C27.0464116,16.4952742 27.128865,16.9604958 27.4999053,17.3523686 C27.9926932,17.8719226 29.0439741,18.3004697 30.7155881,18.663818 C31.7501206,18.8886185 32.6867398,19 33.5009671,19 C34.675284,19 35.5951547,18.7677288 36.1871444,18.3086196 C36.6238898,17.9683627 36.8615875,17.5174034 36.9131209,16.9319712 C37.1018619,15.1600543 37.1005735,13.1225876 35.6660131,11.4376026 L35.6660131,11.4376026 Z M35.9513792,16.8341728 C35.9256125,17.1323221 35.8276991,17.3218066 35.6138356,17.4881997 C34.8582274,18.0749901 33.0996509,18.1408682 30.9101266,17.6661384 C28.9963058,17.2504952 28.3798377,16.8396061 28.1833667,16.6317845 C28.0796558,16.5224404 28.0087974,16.3879676 27.964994,15.4908031 C27.9585524,15.3570095 27.9521107,15.2204992 27.9430924,15.128134 C27.9476015,14.7539193 27.9025098,13.4642028 27.1230675,12.5908088 L27.0766874,12.5412304 C26.778438,12.2267814 26.2566626,11.8464542 25.4656252,11.8206463 C25.2994301,11.8158922 15.7000502,11.8158922 15.5338551,11.8206463 C14.7428177,11.8464542 14.2210423,12.2267814 13.9227928,12.5412304 L13.8744803,12.5935254 C13.0969705,13.4635237 13.0525229,14.7532401 13.0583204,15.0812723 C13.0480138,15.2204992 13.0415721,15.3570095 13.0325538,15.5485313 C12.9906829,16.3886468 12.9204687,16.5224404 12.8167577,16.6317845 C12.6196426,16.8396061 12.0038187,17.2504952 10.0899979,17.6661384 C7.90111769,18.1408682 6.14189702,18.0743109 5.38628887,17.4888788 C5.17178119,17.3218066 5.07386777,17.1323221 5.04874525,16.834852 L4.56755234,16.8803554 L5.04745691,16.8233064 C4.88255011,15.2748316 4.87159926,13.5056313 6.04978111,12.1215123 C6.10646782,12.0556342 6.16444287,11.9911144 6.22499459,11.9279529 C8.54528491,9.48095535 13.7218127,8.06355764 20.5003843,8.01465844 C27.2544776,8.05676609 32.4496862,9.47484295 34.7751299,11.9279529 C34.8350374,11.9911144 34.8930125,12.054955 34.9477667,12.1194748 C36.1272369,13.5056313 36.1175744,15.2748316 35.9520234,16.8233064 L36.4325721,16.8803554 L35.9513792,16.8341728 L35.9513792,16.8341728 Z" id="Imported-Layers" fill="#D8334A" sketch:type="MSShapeGroup"></path>
            </g>
        </g>
    </g>
</svg>