<?xml version="1.0" encoding="UTF-8" standalone="no"?>
<svg width="40px" height="40px" viewBox="0 0 40 40" version="1.1" xmlns="http://www.w3.org/2000/svg" xmlns:xlink="http://www.w3.org/1999/xlink" xmlns:sketch="http://www.bohemiancoding.com/sketch/ns">
    <!-- Generator: Sketch 3.2.2 (9983) - http://www.bohemiancoding.com/sketch -->
    <title>lock_hover</title>
    <desc>Created with Sketch.</desc>
    <defs></defs>
    <g id="save-svg" stroke="none" stroke-width="1" fill="none" fill-rule="evenodd" sketch:type="MSPage">
        <g id="lock_hover" sketch:type="MSArtboardGroup">
            <g id="icon_lock-fill" sketch:type="MSLayerGroup">
                <rect id="Padding" sketch:type="MSShapeGroup" x="0" y="0" width="40" height="40"></rect>
                <path d="M21,27.9585208 C22.4188567,27.7204817 23.5,26.4864981 23.5,25 C23.5,23.3431458 22.1568542,22 20.5,22 C18.8431458,22 17.5,23.3431458 17.5,25 C17.5,26.4864981 18.5811433,27.7204817 20,27.9585208 L20,31.5023012 C20,31.7851562 20.2238576,32 20.5,32 C20.7680664,32 21,31.7771727 21,31.5023012 L21,27.9585208 Z M28.9855382,12 C28.7267293,7.53831026 25.026573,4 20.5,4 C15.973427,4 12.2732707,7.53831026 12.0144618,12 L13.0164023,12 C13.2736953,8.09098409 16.5258787,5 20.5,5 C24.4741213,5 27.7263047,8.09098409 27.9835977,12 L28.9855382,12 L28.9855382,12 Z M12,12 L13,12 L13,17 L12,17 L12,12 Z M28,12 L29,12 L29,17 L28,17 L28,12 Z M9,19.8035154 C9,18.2551766 10.2529135,17 11.7972573,17 L29.2027427,17 C30.7476253,17 32,18.2466431 32,19.8035154 L32,33.1964846 C32,34.7448234 30.7470865,36 29.2027427,36 L11.7972573,36 C10.2523747,36 9,34.7533569 9,33.1964846 L9,19.8035154 Z M10,20.0001062 C10,18.895478 10.9023438,18 11.9945615,18 L29.0054385,18 C30.1070044,18 31,18.8900584 31,20.0001062 L31,32.9998938 C31,34.104522 30.0976562,35 29.0054385,35 L11.9945615,35 C10.8929956,35 10,34.1099416 10,32.9998938 L10,20.0001062 Z M20.5,27 C21.6045695,27 22.5,26.1045695 22.5,25 C22.5,23.8954305 21.6045695,23 20.5,23 C19.3954305,23 18.5,23.8954305 18.5,25 C18.5,26.1045695 19.3954305,27 20.5,27 Z" id="Oval-17" fill="#FFFFFF" sketch:type="MSShapeGroup"></path>
            </g>
        </g>
    </g>
</svg>