<?xml version="1.0" encoding="UTF-8" standalone="no"?>
<svg width="40px" height="40px" viewBox="0 0 40 40" version="1.1" xmlns="http://www.w3.org/2000/svg" xmlns:xlink="http://www.w3.org/1999/xlink" xmlns:sketch="http://www.bohemiancoding.com/sketch/ns">
    <!-- Generator: Sketch 3.2.2 (9983) - http://www.bohemiancoding.com/sketch -->
    <title>meeting_locked</title>
    <desc>Created with Sketch.</desc>
    <defs></defs>
    <g id="save-svg" stroke="none" stroke-width="1" fill="none" fill-rule="evenodd" sketch:type="MSPage">
        <g id="meeting_locked" sketch:type="MSArtboardGroup">
            <g id="icon_lock-fill-small" sketch:type="MSLayerGroup">
                <rect id="Padding" sketch:type="MSShapeGroup" x="0" y="0" width="40" height="40"></rect>
                <path d="M10,19.8072042 C10,18.2568282 11.2507563,17 12.7994924,17 L28.2005076,17 C29.7466246,17 31,18.2500506 31,19.8072042 L31,31.1927958 C31,32.7431718 29.7492437,34 28.2005076,34 L12.7994924,34 C11.2533754,34 10,32.7499494 10,31.1927958 L10,19.8072042 Z M11,19.9918842 C11,18.8917969 11.8909254,18 12.9974219,18 L28.0025781,18 C29.1057238,18 30,18.8933973 30,19.9918842 L30,31.0081158 C30,32.1082031 29.1090746,33 28.0025781,33 L12.9974219,33 C11.8942762,33 11,32.1066027 11,31.0081158 L11,19.9918842 Z M20.5,26 C21.8807119,26 23,24.8807119 23,23.5 C23,22.1192881 21.8807119,21 20.5,21 C19.1192881,21 18,22.1192881 18,23.5 C18,24.8807119 19.1192881,26 20.5,26 Z M20.5,25 C21.3284271,25 22,24.3284271 22,23.5 C22,22.6715729 21.3284271,22 20.5,22 C19.6715729,22 19,22.6715729 19,23.5 C19,24.3284271 19.6715729,25 20.5,25 Z M20,26.495389 C20,26.2217932 20.2319336,26 20.5,26 C20.7761424,26 21,26.2157526 21,26.495389 L21,28.504611 C21,28.7782068 20.7680664,29 20.5,29 C20.2238576,29 20,28.7842474 20,28.504611 L20,26.495389 Z" id="Rectangle-363" fill="#DA4453" sketch:type="MSShapeGroup"></path>
                <path d="M27.9835977,13 C27.7263047,9.09098409 24.4741213,6 20.5,6 C16.5258787,6 13.2736953,9.09098409 13.0164023,13 L14.0189448,13 C14.2742573,9.64377614 17.0783851,7 20.5,7 C23.9216149,7 26.7257427,9.64377614 26.9810552,13 L27.9835977,13 L27.9835977,13 Z M13,13 L14,13 L14,17 L13,17 L13,13 Z M27,13 L28,13 L28,17 L27,17 L27,13 Z" id="Oval-17" fill="#DA4453" sketch:type="MSShapeGroup"></path>
            </g>
        </g>
    </g>
</svg>