<?xml version="1.0" encoding="UTF-8" standalone="no"?>
<svg width="40px" height="40px" viewBox="0 0 40 40" version="1.1" xmlns="http://www.w3.org/2000/svg" xmlns:xlink="http://www.w3.org/1999/xlink" xmlns:sketch="http://www.bohemiancoding.com/sketch/ns">
    <!-- Generator: Sketch 3.2.2 (9983) - http://www.bohemiancoding.com/sketch -->
    <title>meeting_start</title>
    <desc>Created with Sketch.</desc>
    <defs></defs>
    <g id="save-svg" stroke="none" stroke-width="1" fill="none" fill-rule="evenodd" sketch:type="MSPage">
        <g id="meeting_start" sketch:type="MSArtboardGroup">
            <g id="icon_start-meeting-fill" sketch:type="MSLayerGroup">
                <rect id="Padding" sketch:type="MSShapeGroup" x="0" y="0" width="40" height="40"></rect>
                <g id="play-icon" transform="translate(6.000000, 6.000000)" fill="#AAB2B9" sketch:type="MSShapeGroup">
                    <path d="M19.763125,13.5416 L19.769375,13.5344 L11.019375,8.1344 L11.013125,8.1416 C10.905625,8.057 10.774375,8 10.625,8 C10.279375,8 10,8.2694 10,8.6 L10,19.4 C10,19.7312 10.279375,20 10.625,20 C10.77375,20 10.905625,19.9424 11.013125,19.859 L11.019375,19.8662 L19.769375,14.4662 L19.763125,14.459 C19.905,14.3492 20,14.1884 20,14 C20,13.8122 19.905,13.652 19.763125,13.5416" id="Fill-346"></path>
                    <path d="M14,28 C21.7319865,28 28,21.7319865 28,14 C28,6.2680135 21.7319865,0 14,0 C6.2680135,0 0,6.2680135 0,14 C0,21.7319865 6.2680135,28 14,28 Z M14,27 C21.1797017,27 27,21.1797017 27,14 C27,6.82029825 21.1797017,1 14,1 C6.82029825,1 1,6.82029825 1,14 C1,21.1797017 6.82029825,27 14,27 Z" id="Oval-59"></path>
                </g>
            </g>
        </g>
    </g>
</svg>