<?xml version="1.0" encoding="UTF-8" standalone="no"?>
<svg width="40px" height="40px" viewBox="0 0 40 40" version="1.1" xmlns="http://www.w3.org/2000/svg" xmlns:xlink="http://www.w3.org/1999/xlink" xmlns:sketch="http://www.bohemiancoding.com/sketch/ns">
    <!-- Generator: Sketch 3.2.2 (9983) - http://www.bohemiancoding.com/sketch -->
    <title>mic_selected</title>
    <desc>Created with Sketch.</desc>
    <defs></defs>
    <g id="save-svg" stroke="none" stroke-width="1" fill="none" fill-rule="evenodd" sketch:type="MSPage">
        <g id="mic_selected" sketch:type="MSArtboardGroup">
            <g id="icon_mic-fill-ON" sketch:type="MSLayerGroup">
                <rect id="Padding-3" sketch:type="MSShapeGroup" x="0" y="0" width="40" height="40"></rect>
                <g id="mic-stand" transform="translate(9.000000, 3.000000)" fill="#3BAFDA" sketch:type="MSShapeGroup">
                    <path d="M0.010674186,16 C0.00358220163,16.1657817 0,16.3324725 0,16.5 C0,22.6837471 4.88069188,27.7275476 11,27.9893258 L11,33 L11,33 L4.49907684,33 C4.2236826,33 4,33.2238576 4,33.5 C4,33.7680664 4.22344431,34 4.49907684,34 L18.5009232,34 C18.7763174,34 19,33.7761424 19,33.5 C19,33.2319336 18.7765557,33 18.5009232,33 L12,33 L12,27.9893258 L12,27.9893258 C18.1193081,27.7275476 23,22.6837471 23,16.5 C23,16.3324725 22.9964178,16.1657817 22.9893258,16 L21.9883049,16 C21.9960726,16.1656914 22,16.332387 22,16.5 C22,22.2989899 17.2989899,27 11.5,27 C5.70101013,27 1,22.2989899 1,16.5 C1,16.332387 1.00392737,16.1656914 1.0116951,16 L0.010674186,16 L0.010674186,16 Z M4,7.49502875 C4,3.35563867 7.36629279,0 11.5,0 C15.6421356,0 19,3.36236782 19,7.49502875 L19,16.5049713 C19,20.6443613 15.6337072,24 11.5,24 C7.35786438,24 4,20.6376322 4,16.5049713 L4,7.49502875 Z" id="Rectangle-21"></path>
                    <path d="M23,16 L23,15.5046844 C23,15.214035 22.7761424,15 22.5,15 C22.2319336,15 22,15.2259549 22,15.5046844 L22,16 L23,16 Z" id="Rectangle-24"></path>
                    <path d="M1,16 L1,15.5046844 C1,15.214035 0.776142375,15 0.5,15 C0.231933594,15 0,15.2259549 0,15.5046844 L0,16 L1,16 Z" id="Rectangle-24"></path>
                </g>
            </g>
        </g>
    </g>
</svg>