<?xml version="1.0" encoding="UTF-8" standalone="no"?>
<svg width="40px" height="40px" viewBox="0 0 40 40" version="1.1" xmlns="http://www.w3.org/2000/svg" xmlns:xlink="http://www.w3.org/1999/xlink" xmlns:sketch="http://www.bohemiancoding.com/sketch/ns">
    <!-- Generator: Sketch 3.2.2 (9983) - http://www.bohemiancoding.com/sketch -->
    <title>mic_off</title>
    <desc>Created with Sketch.</desc>
    <defs></defs>
    <g id="save-svg" stroke="none" stroke-width="1" fill="none" fill-rule="evenodd" sketch:type="MSPage">
        <g id="mic_off" sketch:type="MSArtboardGroup">
            <g id="icon_mic-fill-ON" sketch:type="MSLayerGroup">
                <rect id="Padding-3" sketch:type="MSShapeGroup" x="0" y="0" width="40" height="40"></rect>
                <g id="mic-stand" transform="translate(9.000000, 3.000000)" fill="#3BAFDA" sketch:type="MSShapeGroup">
                    <path d="M20.157834,24.0693828 C21.9275681,22.0468216 23,19.3986507 23,16.5 C23,16.3324725 22.9964178,16.1657817 22.9893258,16 L21.9883049,16 C21.9960726,16.1656914 22,16.332387 22,16.5 C22,19.0232811 21.1099432,21.3386782 19.6266594,23.1493615 L20.157834,24.0693828 L20.157834,24.0693828 Z M7.08974177,1.4347831 C8.3285526,0.532446359 9.85339266,0 11.5,0 C15.6421356,0 19,3.36236782 19,7.49502875 L19,16.5049713 C19,17.8846217 18.6260468,19.177207 17.9743645,20.2875026 L7.08974177,1.4347831 L7.08974177,1.4347831 Z M15.1618606,27.4047064 C14.1621605,27.7402736 13.1011334,27.9422204 12,27.9893258 L12,27.9893258 L12,33 L18.5009232,33 C18.7765557,33 19,33.2319336 19,33.5 C19,33.7761424 18.7763174,34 18.5009232,34 L4.49907684,34 C4.22344431,34 4,33.7680664 4,33.5 C4,33.2238576 4.2236826,33 4.49907684,33 L11,33 L11,33 L11,27.9893258 C4.88069188,27.7275476 0,22.6837471 0,16.5 C0,16.3324725 0.00358220163,16.1657817 0.010674186,16 L0.010674186,16 L1.0116951,16 C1.00392737,16.1656914 1,16.332387 1,16.5 C1,22.2989899 5.70101013,27 11.5,27 C12.5976763,27 13.6560123,26.8315639 14.6505717,26.519128 L15.1618606,27.4047064 L15.1618606,27.4047064 Z M13.0974688,23.8290749 C12.5825023,23.9410277 12.0479945,24 11.5,24 C7.35786438,24 4,20.6376322 4,16.5049713 L4,8.07179677 L13.0974688,23.8290749 Z M2.82793065,0.936422694 C2.68877215,0.695393096 2.77682228,0.384033203 3.0089746,0.25 C3.24812091,0.111928813 3.55597042,0.197424563 3.69395606,0.436422694 L18.4400185,25.9773521 C18.579177,26.2183817 18.4911269,26.5297416 18.2589746,26.6637748 C18.0198283,26.801846 17.7119788,26.7163503 17.5739931,26.4773521 L2.82793065,0.936422694 Z" id="Rectangle-21"></path>
                    <path d="M23,16 L23,15.5046844 C23,15.214035 22.7761424,15 22.5,15 C22.2319336,15 22,15.2259549 22,15.5046844 L22,16 L23,16 Z" id="Rectangle-24"></path>
                    <path d="M1,16 L1,15.5046844 C1,15.214035 0.776142375,15 0.5,15 C0.231933594,15 0,15.2259549 0,15.5046844 L0,16 L1,16 Z" id="Rectangle-24"></path>
                </g>
            </g>
        </g>
    </g>
</svg>