<?xml version="1.0" encoding="UTF-8" standalone="no"?>
<svg width="40px" height="40px" viewBox="0 0 40 40" version="1.1" xmlns="http://www.w3.org/2000/svg" xmlns:xlink="http://www.w3.org/1999/xlink" xmlns:sketch="http://www.bohemiancoding.com/sketch/ns">
    <!-- Generator: Sketch 3.2.2 (9983) - http://www.bohemiancoding.com/sketch -->
    <title>mic_hover</title>
    <desc>Created with Sketch.</desc>
    <defs></defs>
    <g id="save-svg" stroke="none" stroke-width="1" fill="none" fill-rule="evenodd" sketch:type="MSPage">
        <g id="mic_hover" sketch:type="MSArtboardGroup">
            <g id="icon_mic-fill" sketch:type="MSLayerGroup">
                <rect id="Padding-3" sketch:type="MSShapeGroup" x="0" y="0" width="40" height="40"></rect>
                <path d="M9.01067419,19 C9.0035822,19.1657817 9,19.3324725 9,19.5 C9,25.6837471 13.8806919,30.7275476 20,30.9893258 L20,36 L20,36 L13.4990768,36 C13.2236826,36 13,36.2238576 13,36.5 C13,36.7680664 13.2234443,37 13.4990768,37 L27.5009232,37 C27.7763174,37 28,36.7761424 28,36.5 C28,36.2319336 27.7765557,36 27.5009232,36 L21,36 L21,30.9893258 L21,30.9893258 C27.1193081,30.7275476 32,25.6837471 32,19.5 C32,19.3324725 31.9964178,19.1657817 31.9893258,19 L30.9883049,19 C30.9960726,19.1656914 31,19.332387 31,19.5 C31,25.2989899 26.2989899,30 20.5,30 C14.7010101,30 10,25.2989899 10,19.5 C10,19.332387 10.0039274,19.1656914 10.0116951,19 L9.01067419,19 Z" id="Rectangle-21" fill="#FFFFFF" sketch:type="MSShapeGroup"></path>
                <path d="M32,19 L32,18.5046844 C32,18.214035 31.7761424,18 31.5,18 C31.2319336,18 31,18.2259549 31,18.5046844 L31,19 L32,19 Z" id="Rectangle-24" fill="#FFFFFF" sketch:type="MSShapeGroup"></path>
                <path d="M10,19 L10,18.5046844 C10,18.214035 9.77614237,18 9.5,18 C9.23193359,18 9,18.2259549 9,18.5046844 L9,19 L10,19 Z" id="Rectangle-24" fill="#FFFFFF" sketch:type="MSShapeGroup"></path>
                <path d="M13,10.4950287 C13,6.35563867 16.3662928,3 20.5,3 C24.6421356,3 28,6.36236782 28,10.4950287 L28,19.5049713 C28,23.6443613 24.6337072,27 20.5,27 C16.3578644,27 13,23.6376322 13,19.5049713 L13,10.4950287 Z M14,10.4965783 C14,6.9086172 16.9174538,4 20.5,4 C24.0898509,4 27,6.91007585 27,10.4965783 L27,19.5034217 C27,23.0913828 24.0825462,26 20.5,26 C16.9101491,26 14,23.0899242 14,19.5034217 L14,10.4965783 Z" id="Rectangle-20" fill="#FFFFFF" sketch:type="MSShapeGroup"></path>
            </g>
        </g>
    </g>
</svg>