<?xml version="1.0" encoding="UTF-8" standalone="no"?>
<svg width="41px" height="40px" viewBox="0 0 41 40" version="1.1" xmlns="http://www.w3.org/2000/svg" xmlns:xlink="http://www.w3.org/1999/xlink" xmlns:sketch="http://www.bohemiancoding.com/sketch/ns">
    <!-- Generator: Sketch 3.2.2 (9983) - http://www.bohemiancoding.com/sketch -->
    <title>notes_hover</title>
    <desc>Created with Sketch.</desc>
    <defs></defs>
    <g id="save-svg" stroke="none" stroke-width="1" fill="none" fill-rule="evenodd" sketch:type="MSPage">
        <g id="notes_hover" sketch:type="MSArtboardGroup" transform="translate(0.000000, 0.000000)">
            <g id="icon_notes-fill" sketch:type="MSLayerGroup">
                <rect id="Padding" sketch:type="MSShapeGroup" x="0" y="0" width="40" height="40"></rect>
                <path d="M27,8 L31,8 L31,35 L9,35 L9,8 L14,8 L14,8 L14,5.49769878 C14,5.22282734 14.2319336,5 14.5,5 C14.7761424,5 15,5.21484375 15,5.49769878 L15,8 L18,8 L18,5.49769878 C18,5.22282734 18.2319336,5 18.5,5 C18.7761424,5 19,5.21484375 19,5.49769878 L19,8 L19,8 L22,8 L22,8 L22,5.49769878 C22,5.22282734 22.2319336,5 22.5,5 C22.7761424,5 23,5.21484375 23,5.49769878 L23,8 L26,8 L26,5.49769878 C26,5.22282734 26.2319336,5 26.5,5 C26.7761424,5 27,5.21484375 27,5.49769878 L27,8 L27,8 Z M27,9 L30,9 L30,34 L10,34 L10,9 L14,9 L14,9 L14,9.50230122 C14,9.78515625 14.2238576,10 14.5,10 C14.7680664,10 15,9.77717266 15,9.50230122 L15,9 L18,9 L18,9.50230122 C18,9.78515625 18.2238576,10 18.5,10 C18.7680664,10 19,9.77717266 19,9.50230122 L19,9 L19,9 L22,9 L22,9 L22,9.50230122 C22,9.78515625 22.2238576,10 22.5,10 C22.7680664,10 23,9.77717266 23,9.50230122 L23,9 L26,9 L26,9.50230122 C26,9.78515625 26.2238576,10 26.5,10 C26.7680664,10 27,9.77717266 27,9.50230122 L27,9 L27,9 Z M14,15.5 C14,15.2238576 14.2256393,15 14.493741,15 L26.506259,15 C26.7789446,15 27,15.2319336 27,15.5 C27,15.7761424 26.7743607,16 26.506259,16 L14.493741,16 C14.2210554,16 14,15.7680664 14,15.5 Z M14,19.5 C14,19.2238576 14.2256393,19 14.493741,19 L26.506259,19 C26.7789446,19 27,19.2319336 27,19.5 C27,19.7761424 26.7743607,20 26.506259,20 L14.493741,20 C14.2210554,20 14,19.7680664 14,19.5 Z M14,23.5 C14,23.2238576 14.2256393,23 14.493741,23 L26.506259,23 C26.7789446,23 27,23.2319336 27,23.5 C27,23.7761424 26.7743607,24 26.506259,24 L14.493741,24 C14.2210554,24 14,23.7680664 14,23.5 Z M14,27.5 C14,27.2238576 14.2224731,27 14.5096658,27 L22.4903342,27 C22.7718148,27 23,27.2319336 23,27.5 C23,27.7761424 22.7775269,28 22.4903342,28 L14.5096658,28 C14.2281852,28 14,27.7680664 14,27.5 Z" id="Rectangle-142" fill="#FFFFFF" sketch:type="MSShapeGroup"></path>
            </g>
        </g>
    </g>
</svg>