<?xml version="1.0" encoding="UTF-8" standalone="no"?>
<svg width="40px" height="40px" viewBox="0 0 40 40" version="1.1" xmlns="http://www.w3.org/2000/svg" xmlns:xlink="http://www.w3.org/1999/xlink" xmlns:sketch="http://www.bohemiancoding.com/sketch/ns">
    <!-- Generator: Sketch 3.2.2 (9983) - http://www.bohemiancoding.com/sketch -->
    <title>pen</title>
    <desc>Created with Sketch.</desc>
    <defs></defs>
    <g id="save-svg" stroke="none" stroke-width="1" fill="none" fill-rule="evenodd" sketch:type="MSPage">
        <g id="pen" sketch:type="MSArtboardGroup">
            <g id="icon_pen-fill" sketch:type="MSLayerGroup" transform="translate(-1.000000, 0.000000)">
                <rect id="Padding-5" sketch:type="MSShapeGroup" x="1" y="0" width="40" height="40"></rect>
                <path d="M23.6733904,3.77740761 L23.6744329,31.0675081 L18.5143277,39.6333646 L13.2499779,31.0675081 L13.2489355,3.77740761 L23.6733904,3.77740761 M23.892304,2.77707402 L23.8902191,2.77707402 L13.0331493,2.77707402 L13.0300219,2.77707402 C12.8184055,2.77707402 12.6067891,2.84609704 12.44521,2.98314274 C12.2773763,3.12619044 12.2012778,3.31425316 12.2075325,3.50131554 L12.2075325,31.1705425 C12.2033627,31.2935835 12.2492303,31.4106225 12.3190741,31.5216595 L17.7950403,40.4326311 C17.7950403,40.4326311 17.8742662,40.5376661 17.9295158,40.5836815 C18.0921373,40.7217275 18.3047961,40.7897502 18.5164126,40.7897502 C18.7290715,40.7897502 18.9417303,40.7217275 19.1043518,40.5836815 C19.158559,40.5376661 19.2377849,40.4316308 19.2377849,40.4316308 L24.6042943,31.5216595 C24.6741381,31.4106225 24.7210481,31.2915828 24.7158359,31.1695421 L24.7158359,3.50231587 C24.723133,3.31525349 24.6459921,3.12619044 24.4771159,2.98314274 C24.3165793,2.84709737 24.1049629,2.77707402 23.892304,2.77707402" id="Imported-Layers" fill="#AAB2B9" sketch:type="MSShapeGroup" transform="translate(18.983072, 22.283579) rotate(-318.000000) translate(-18.983072, -22.283579) "></path>
                <rect id="Rectangle-90" fill="#AAB2B9" sketch:type="MSShapeGroup" transform="translate(27.369629, 12.128462) rotate(-318.000000) translate(-27.369629, -12.128462) " x="21.3696289" y="11.6284615" width="12" height="1"></rect>
                <path d="M16.8534534,28.1486905 C16.7634494,28.057652 16.6393437,28 16.5023012,28 L13,28 L13,24.4976988 C13,24.3566635 12.9443456,24.2325369 12.8543055,24.1435207 L12.8534534,24.1486905 C12.7634494,24.057652 12.6393437,24 12.5023012,24 L8.49769878,24 C8.21484375,24 8,24.2238576 8,24.5 C8,24.7680664 8.22282734,25 8.49769878,25 L12,25 L12,28.5023012 C12,28.6433359 12.0556539,28.767462 12.1456934,28.8564782 L12.1465457,28.8513085 C12.2365497,28.9423476 12.3606559,29 12.4976988,29 L16,29 L16,32.5023012 C16,32.7851562 16.2238576,33 16.5,33 C16.7680664,33 17,32.7771727 17,32.5023012 L17,28.4976988 C17,28.3566635 16.9443456,28.2325369 16.8543055,28.1435207 Z" id="Rectangle-91" fill="#AAB2B9" sketch:type="MSShapeGroup"></path>
            </g>
        </g>
    </g>
</svg>