<?xml version="1.0" encoding="UTF-8" standalone="no"?>
<svg width="40px" height="40px" viewBox="0 0 40 40" version="1.1" xmlns="http://www.w3.org/2000/svg" xmlns:xlink="http://www.w3.org/1999/xlink" xmlns:sketch="http://www.bohemiancoding.com/sketch/ns">
    <!-- Generator: Sketch 3.2.2 (9983) - http://www.bohemiancoding.com/sketch -->
    <title>pen_selected</title>
    <desc>Created with Sketch.</desc>
    <defs></defs>
    <g id="save-svg" stroke="none" stroke-width="1" fill="none" fill-rule="evenodd" sketch:type="MSPage">
        <g id="pen_selected" sketch:type="MSArtboardGroup">
            <g id="icon_pen-fill-ON" sketch:type="MSLayerGroup">
                <rect id="Padding-5" sketch:type="MSShapeGroup" x="0" y="0" width="40" height="40"></rect>
                <path d="M30.7134853,16.7125037 L16.297476,32.723104 C16.224032,32.8120264 16.1178489,32.8678704 16.0000001,32.903946 L16,32.9039473 L16,28.5034227 C16,28.502852 15.999999,28.5022813 15.9999972,28.501712 C15.9999991,28.5011416 16,28.5005709 16,28.5 C16,28.2319336 15.7771727,28 15.5023012,28 L12,28 L12,24.4976988 C12,24.3562713 11.9440356,24.2318466 11.8535534,24.1427788 C11.7617619,24.0581275 11.6357663,24 11.4965773,24 L7.3202116,24 L7.3202116,24 L21.4180043,8.34281504 L30.7134853,16.7125037 Z M31.3826159,15.9693589 L34.8104639,12.162348 C34.9410558,12.0282163 35.0102368,11.8360977 34.9804549,11.6167923 C34.9521851,11.4082709 34.8417782,11.2146344 34.6837419,11.0723378 L34.6821925,11.0709428 L26.6138173,3.80614508 L26.6114932,3.80405249 C26.4542315,3.66245345 26.2507845,3.57214852 26.0390064,3.56587583 C25.818564,3.55987831 25.6361733,3.64871629 25.5156522,3.79191593 L22.0871349,7.59967022 L31.3826159,15.9693589 Z M15,33.2083101 L6.02894369,35.9406457 C6.02894369,35.9406457 5.8991159,35.9664328 5.82804185,35.9643572 C5.6148197,35.9581304 5.41126729,35.8663845 5.25323094,35.724088 C5.09596928,35.5824889 4.983449,35.3896417 4.9549685,35.1782385 C4.94470031,35.1070732 4.95610618,34.9760045 4.95610618,34.9760045 L6.7921687,25 L11,25 L11,28.5023012 C11,28.6433359 11.0556539,28.767462 11.1456934,28.8564782 L11.1465457,28.8513085 C11.2365497,28.9423476 11.3606559,29 11.4976988,29 L15,29 L15,33.2083101 L15,33.2083101 Z" id="Imported-Layers" fill="#3BAFDA" sketch:type="MSShapeGroup"></path>
            </g>
        </g>
    </g>
</svg>