<?xml version="1.0" encoding="UTF-8" standalone="no"?>
<svg width="75px" height="40px" viewBox="0 0 75 40" version="1.1" xmlns="http://www.w3.org/2000/svg" xmlns:xlink="http://www.w3.org/1999/xlink" xmlns:sketch="http://www.bohemiancoding.com/sketch/ns">
    <!-- Generator: Sketch 3.2.2 (9983) - http://www.bohemiancoding.com/sketch -->
    <title>screenshare_toggled</title>
    <desc>Created with Sketch.</desc>
    <defs></defs>
    <g id="save-svg" stroke="none" stroke-width="1" fill="none" fill-rule="evenodd" sketch:type="MSPage">
        <g id="screenshare_toggled" sketch:type="MSArtboardGroup">
            <g id="icon_screen-share-fill-ON" sketch:type="MSLayerGroup">
                <rect id="Padding" sketch:type="MSShapeGroup" x="0" y="0" width="75" height="40"></rect>
                <path d="M30,12 L30,6.991155 C30,5.88967395 29.1084896,5 28.0087557,5 L3.99124431,5 C2.89989752,5 2,5.89147046 2,6.991155 L2,12 L30,12 L30,12 Z M1,6.80007565 C1,5.25363657 2.25086829,4 3.79538745,4 L28.2046125,4 C29.7484624,4 31,5.25655305 31,6.80007565 L31,25.1999243 C31,26.7463634 29.7491317,28 28.2046125,28 L3.79538745,28 C2.25153759,28 1,26.7434469 1,25.1999243 L1,6.80007565 Z M6.5,10 C7.32842712,10 8,9.32842712 8,8.5 C8,7.67157288 7.32842712,7 6.5,7 C5.67157288,7 5,7.67157288 5,8.5 C5,9.32842712 5.67157288,10 6.5,10 Z M11.5,10 C12.3284271,10 13,9.32842712 13,8.5 C13,7.67157288 12.3284271,7 11.5,7 C10.6715729,7 10,7.67157288 10,8.5 C10,9.32842712 10.6715729,10 11.5,10 Z M16.5,10 C17.3284271,10 18,9.32842712 18,8.5 C18,7.67157288 17.3284271,7 16.5,7 C15.6715729,7 15,7.67157288 15,8.5 C15,9.32842712 15.6715729,10 16.5,10 Z" id="Rectangle-34" fill="#3BAFDA" sketch:type="MSShapeGroup"></path>
                <path d="M34,13 L36.0087557,13 C37.1084896,13 38,13.8896739 38,14.991155 L38,19.8676758 L34,19.8676758 L34,19.9338379 L34,27.0023284 C34,29.7624662 31.7705564,32 29.002098,32 L9,32 L9,33.1999243 C9,34.7434469 10.2515376,36 11.7953875,36 L36.2046125,36 C37.7491317,36 39,34.7463634 39,33.1999243 L39,14.8000757 C39,13.2565531 37.7484624,12 36.2046125,12 L34,12 L34,13 Z" id="Rectangle-34" fill="#3BAFDA" sketch:type="MSShapeGroup"></path>
                <path d="M59.750783,13 C59.969783,13 60.188783,13.0827273 60.335783,13.2392727 L66.335783,19.6029091 C66.554783,19.8345455 66.554783,20.1654545 66.335783,20.3983636 L60.335783,26.7607273 C60.076283,27.0356364 59.605283,27.0776364 59.281283,26.86 C58.957283,26.6398182 58.906283,26.2401818 59.164283,25.9652727 L64.789283,20 L59.164283,14.0347273 C58.906283,13.7598182 58.957283,13.3601818 59.281283,13.14 C59.420783,13.0458182 59.584283,13 59.750783,13" id="arrow" fill="#3BAFDA" sketch:type="MSShapeGroup" transform="translate(62.750016, 19.999429) rotate(-270.000000) translate(-62.750016, -19.999429) "></path>
            </g>
        </g>
    </g>
</svg>