<?xml version="1.0" encoding="UTF-8" standalone="no"?>
<svg width="40px" height="40px" viewBox="0 0 40 40" version="1.1" xmlns="http://www.w3.org/2000/svg" xmlns:xlink="http://www.w3.org/1999/xlink" xmlns:sketch="http://www.bohemiancoding.com/sketch/ns">
    <!-- Generator: Sketch 3.2.2 (9983) - http://www.bohemiancoding.com/sketch -->
    <title>settings_click</title>
    <desc>Created with Sketch.</desc>
    <defs></defs>
    <g id="save-svg" stroke="none" stroke-width="1" fill="none" fill-rule="evenodd" sketch:type="MSPage">
        <g id="settings_click" sketch:type="MSArtboardGroup">
            <g id="icon_settings-fill-small" sketch:type="MSLayerGroup">
                <rect id="Padding" sketch:type="MSShapeGroup" x="0" y="0" width="40" height="40"></rect>
                <path d="M21.1842581,33 L18.8157419,33 C18.3334839,33 17.9384516,32.7195686 17.8327742,32.3022599 L16.8875484,29.5413457 C16.3750968,29.372753 15.8987097,29.163264 15.4659355,28.9153826 L12.8323871,30.1981895 C12.6570968,30.3242167 12.4457419,30.3242167 12.3492903,30.3242167 C12.1052258,30.3242167 11.8762581,30.2182203 11.6682581,30.009566 L10.0042581,28.3545198 C9.66793548,28.0190036 9.58741935,27.4798408 9.82309677,27.1276323 L11.1096774,24.501926 C10.8614194,24.0362096 10.6509032,23.5654854 10.484,23.1006035 L7.66845161,22.1466359 C7.63406452,22.1341166 7.60135484,22.1190935 7.57116129,22.0990627 C7.09896774,21.7860812 7,21.4255265 7,21.1784797 L7,18.8215203 C7,18.3399461 7.28180645,17.9468413 7.702,17.8425141 L10.4764516,16.9010657 C10.6441935,16.3927838 10.8547097,15.9187211 11.1046452,15.4880586 L9.79541935,12.8239599 C9.78283871,12.7980868 9.77277419,12.7705444 9.76522581,12.7413328 C9.65032258,12.2856317 9.73083871,11.9158963 10.0042581,11.6446456 L11.633871,10.0238187 C11.7974194,9.78511813 12.1094194,9.67578326 12.3492903,9.67578326 C12.4457419,9.67578326 12.6554194,9.67578326 12.8315484,9.80181048 L15.4768387,11.0879558 C15.9448387,10.8409091 16.417871,10.6322548 16.8841935,10.4653313 L17.842,7.66519004 C17.8545806,7.63097072 17.8696774,7.59758603 17.8906452,7.5675398 C18.206,7.09848485 18.5674839,7 18.8157419,7 L21.1842581,7 C21.6673548,7 22.0615484,7.28043143 22.1672258,7.69774011 L23.1132903,10.4578197 C23.6257419,10.6247432 24.1012903,10.8342322 24.5349032,11.0829481 L27.1684516,9.80181048 C27.3454194,9.67578326 27.5550968,9.67578326 27.6507097,9.67578326 C27.8939355,9.67578326 28.1229032,9.78094504 28.3317419,9.98876477 L29.9957419,11.6446456 C30.3337419,11.9801618 30.4125806,12.5201592 30.1769032,12.8723677 L28.8911613,15.4972393 C29.1394194,15.9629558 29.3499355,16.4320108 29.5168387,16.8985619 L32.3315484,17.8525295 C32.3659355,17.8642142 32.3986452,17.8800719 32.4288387,17.8992681 C32.9010323,18.211415 33,18.5736389 33,18.8215203 L33,21.1784797 C33,21.6592193 32.7181935,22.0523241 32.2988387,22.1566513 L29.5243871,23.0980996 C29.3574839,23.605547 29.1469677,24.0796097 28.8961935,24.5119414 L30.2045806,27.1752054 C30.218,27.2010786 30.2280645,27.228621 30.2356129,27.2569979 C30.3488387,27.7135336 30.2683226,28.0824345 29.9957419,28.3545198 L28.3669677,29.9753467 C28.2042581,30.2140473 27.8922581,30.3242167 27.6507097,30.3242167 C27.5550968,30.3242167 27.3445806,30.3242167 27.1684516,30.1981895 L24.524,28.9112096 C24.0576774,29.1565871 23.5854839,29.366076 23.1158065,29.5338341 L22.1588387,32.33481 C22.033871,32.7062147 21.6052903,33 21.1842581,33 L21.1842581,33 Z M15.545931,27.9149286 C15.622069,27.9149286 15.6990345,27.9363337 15.7652414,27.9774973 C16.2361379,28.2705818 16.7773793,28.5093304 17.3715862,28.687157 C17.4998621,28.7242042 17.6008276,28.8221734 17.6446897,28.9481339 L18.6543448,31.9020307 C18.6733793,31.969539 18.7503448,32 18.8314483,32 L21.1685517,32 C21.2405517,32 21.3307586,31.9324918 21.3473103,31.8987377 L22.3561379,28.9481339 C22.3983448,28.8262898 22.4943448,28.7307903 22.6168276,28.6896268 C23.1605517,28.5101537 23.7108966,28.2664654 24.2529655,27.9667947 C24.3729655,27.9025796 24.5153103,27.89764 24.6361379,27.9569155 L27.4788966,29.3391877 C27.4888276,29.3441273 27.4987586,29.3498902 27.5095172,29.3564764 C27.5401379,29.35236 27.6005517,29.3457739 27.6005517,29.3457739 L29.278069,27.6588913 C29.2995862,27.6374863 29.3467586,27.5897366 29.3062069,27.3970911 L27.9357241,24.6111416 C27.8728276,24.4835346 27.8811034,24.332876 27.9572414,24.2126784 C28.2526897,23.7417673 28.4918621,23.203348 28.6689655,22.6155324 C28.7078621,22.4879254 28.8055172,22.386663 28.9321379,22.3430296 L31.9015172,21.3378156 C31.9693793,21.3188804 32,21.2423161 32,21.1624588 L32,18.8375412 C32,18.7856751 31.942069,18.712404 31.846069,18.6416026 L28.9321379,17.6553238 C28.8096552,17.613337 28.7144828,17.5178375 28.6731034,17.3959934 C28.4926897,16.8567508 28.2485517,16.3092755 27.9464828,15.7692097 C27.8802759,15.6514819 27.8761379,15.5098793 27.9357241,15.3880351 L29.326069,12.5600988 C29.3558621,12.4967069 29.3409655,12.4036773 29.278069,12.3402854 L27.6361379,10.7069155 C27.5856552,10.6566959 27.5525517,10.6410538 27.5442759,10.638584 C27.5434483,10.6344676 27.5244138,10.6352909 27.5326897,10.6278814 C27.5153103,10.6402305 27.4971034,10.650933 27.4788966,10.659989 L24.6361379,12.0422613 C24.5086897,12.1048299 24.3572414,12.0965971 24.2355862,12.0208562 C23.7630345,11.728595 23.2226207,11.4898463 22.6292414,11.3120198 C22.5009655,11.2741493 22.4,11.1770033 22.3561379,11.0510428 L21.3456552,8.09796926 C21.3274483,8.03046103 21.2504828,8 21.1685517,8 L18.8314483,8 C18.7801379,8 18.7073103,8.05762898 18.6353103,8.15312843 L17.6446897,11.0510428 C17.6024828,11.1720637 17.5064828,11.2675631 17.3831724,11.3087267 C16.8435862,11.4881998 16.2932414,11.7310648 15.7470345,12.032382 C15.6286897,12.0982437 15.4863448,12.1015368 15.3646897,12.0422613 L12.521931,10.659989 C12.512,10.6550494 12.502069,10.6492865 12.4913103,10.6435236 C12.4598621,10.64764 12.3994483,10.6542261 12.3994483,10.6542261 L10.721931,12.3402854 C10.7012414,12.3608672 10.6532414,12.4086169 10.6946207,12.6012623 L12.0642759,15.3880351 C12.128,15.5156422 12.1197241,15.667124 12.0435862,15.7881449 C11.7489655,16.2565862 11.5089655,16.7933589 11.3310345,17.3836443 C11.2929655,17.5112514 11.1953103,17.6116905 11.0678621,17.6553238 L8.09931034,18.6613611 C8.03062069,18.6794731 8,18.7568606 8,18.8375412 L8,21.1624588 C8,21.2126784 8.05875862,21.2851262 8.15475862,21.3567508 L11.0678621,22.3430296 C11.1911724,22.3850165 11.2863448,22.4805159 11.3277241,22.6031833 C11.5073103,23.1407794 11.7522759,23.6882547 12.0551724,24.2299671 C12.1205517,24.3485181 12.1238621,24.490944 12.0642759,24.6111416 L10.6747586,27.4390779 C10.6449655,27.5016465 10.6582069,27.5946762 10.721931,27.6588913 L12.3646897,29.2922613 C12.4151724,29.3424808 12.4474483,29.3589462 12.4565517,29.361416 C12.4747586,29.3655324 12.4772414,29.3647091 12.4673103,29.3721186 C12.4846897,29.3597695 12.5028966,29.349067 12.521931,29.3391877 L15.3646897,27.9569155 C15.4217931,27.9289243 15.4838621,27.9149286 15.545931,27.9149286 L15.545931,27.9149286 Z M20,26 C16.6916056,26 14,23.3087971 14,20 C14,16.6912029 16.6916056,14 20,14 C23.3083944,14 26,16.6912029 26,20 C26,23.3087971 23.3083944,26 20,26 L20,26 Z M14.9677419,19.9677419 C14.9677419,22.7246033 17.2103955,24.9677419 19.9677419,24.9677419 C22.7242086,24.9677419 24.9677419,22.7246033 24.9677419,19.9677419 C24.9677419,17.2108806 22.7242086,14.9677419 19.9677419,14.9677419 C17.2103955,14.9677419 14.9677419,17.2108806 14.9677419,19.9677419 Z" id="Imported-Layers" fill="#3BAFDA" sketch:type="MSShapeGroup"></path>
            </g>
        </g>
    </g>
</svg>