<?xml version="1.0" encoding="UTF-8" standalone="no"?>
<svg width="40px" height="40px" viewBox="0 0 40 40" version="1.1" xmlns="http://www.w3.org/2000/svg" xmlns:xlink="http://www.w3.org/1999/xlink" xmlns:sketch="http://www.bohemiancoding.com/sketch/ns">
    <!-- Generator: Sketch 3.2.2 (9983) - http://www.bohemiancoding.com/sketch -->
    <title>snapshot_selected</title>
    <desc>Created with Sketch.</desc>
    <defs></defs>
    <g id="save-svg" stroke="none" stroke-width="1" fill="none" fill-rule="evenodd" sketch:type="MSPage">
        <g id="snapshot_selected" sketch:type="MSArtboardGroup">
            <g id="icon_snapshot-fill-ON" sketch:type="MSLayerGroup">
                <rect id="Padding-5" sketch:type="MSShapeGroup" x="0" y="0" width="40" height="40"></rect>
                <path d="M12.9395773,11 L6.99610022,11 C5.33425951,11 4,12.3470803 4,14.008788 L4,28.991212 C4,30.6544098 5.34139976,32 6.99610022,32 L33.0038998,32 C34.6657405,32 36,30.6529197 36,28.991212 L36,14.008788 C36,12.3455902 34.6586002,11 33.0038998,11 L27.0604193,11 C27.058321,10.9968804 27.0561982,10.9937574 27.054051,10.9906311 L25.6932634,9.0093689 C25.3045076,8.44335318 24.5543453,8 24.0046024,8 L15.9953976,8 C15.4556644,8 14.6896154,8.45190985 14.3067366,9.0093689 L12.945949,10.9906311 C12.9438015,10.9937578 12.9416776,10.9968808 12.9395773,11 L12.9395773,11 Z M20.5,29 C24.6421356,29 28,25.6421356 28,21.5 C28,17.3578644 24.6421356,14 20.5,14 C16.3578644,14 13,17.3578644 13,21.5 C13,25.6421356 16.3578644,29 20.5,29 Z M30.5,18.0294573 C31.3284271,18.0294573 32,17.3512902 32,16.5147287 C32,15.6781671 31.3284271,15 30.5,15 C29.6715729,15 29,15.6781671 29,16.5147287 C29,17.3512902 29.6715729,18.0294573 30.5,18.0294573 Z M20.5,27.5 C23.8137085,27.5 26.5,24.8137085 26.5,21.5 C26.5,18.1862915 23.8137085,15.5 20.5,15.5 C17.1862915,15.5 14.5,18.1862915 14.5,21.5 C14.5,24.8137085 17.1862915,27.5 20.5,27.5 Z" id="Path" fill="#3BAFDA" sketch:type="MSShapeGroup"></path>
            </g>
        </g>
    </g>
</svg>