<?xml version="1.0" encoding="UTF-8" standalone="no"?>
<svg width="40px" height="40px" viewBox="0 0 40 40" version="1.1" xmlns="http://www.w3.org/2000/svg" xmlns:xlink="http://www.w3.org/1999/xlink" xmlns:sketch="http://www.bohemiancoding.com/sketch/ns">
    <!-- Generator: Sketch 3.2.2 (9983) - http://www.bohemiancoding.com/sketch -->
    <title>text_selected</title>
    <desc>Created with Sketch.</desc>
    <defs></defs>
    <g id="save-svg" stroke="none" stroke-width="1" fill="none" fill-rule="evenodd" sketch:type="MSPage">
        <g id="text_selected" sketch:type="MSArtboardGroup">
            <g id="icon_text-fill-ON" sketch:type="MSLayerGroup">
                <rect id="Padding-5" sketch:type="MSShapeGroup" x="0" y="0" width="40" height="40"></rect>
                <path d="M4,6.79776134 C4,5.25260042 5.25443792,4 6.79776134,4 L33.2022387,4 C34.7473996,4 36,5.25443792 36,6.79776134 L36,33.2022387 C36,34.7473996 34.7455621,36 33.2022387,36 L6.79776134,36 C5.25260042,36 4,34.7455621 4,33.2022387 L4,6.79776134 Z M11,11 L11,17 L12,17 C12.181,14.853 12.95,14.408 14.456,13.635 C15.275,13.219 16.453,12.993 18,13 L18,27 C17.989,28.624 17.786,29.345 17.382,29.707 C16.977,30.068 16.2497559,30 15,30 L15,31 L26,31 L26,30 C24.7470703,30 24.022,30.07 23.618,29.714 C23.213,29.357 23.011,28.634 23,27 L23,13 C24.578,12.993 25.756,13.219 26.544,13.635 C27.947,14.388 28.797,14.834 29,17 L30,17 L29.969,11 L11,11 Z" id="Rectangle-89" fill="#3BAFDA" sketch:type="MSShapeGroup"></path>
            </g>
        </g>
    </g>
</svg>