<?xml version="1.0" encoding="UTF-8" standalone="no"?>
<svg width="40px" height="40px" viewBox="0 0 40 40" version="1.1" xmlns="http://www.w3.org/2000/svg" xmlns:xlink="http://www.w3.org/1999/xlink" xmlns:sketch="http://www.bohemiancoding.com/sketch/ns">
    <!-- Generator: Sketch 3.2.2 (9983) - http://www.bohemiancoding.com/sketch -->
    <title>undo_active</title>
    <desc>Created with Sketch.</desc>
    <defs></defs>
    <g id="save-svg" stroke="none" stroke-width="1" fill="none" fill-rule="evenodd" sketch:type="MSPage">
        <g id="undo_active" sketch:type="MSArtboardGroup">
            <g id="icon_undo-fill" sketch:type="MSLayerGroup">
                <rect id="Padding-5" sketch:type="MSShapeGroup" x="0" y="0" width="40" height="40"></rect>
                <path d="M16.2669444,30.8873636 L3.17888889,19.8873636 C3.06513889,19.7923636 3,19.6513636 3,19.5003636 C3,19.3503636 3.06513889,19.2093636 3.17888889,19.1143636 L16.2669444,8.11436359 C16.4118056,7.99036359 17,7.96875 17,8.50036359 L17,15.0625 C17,16 17.8135862,15.9713135 18.0021973,16 C33.8774414,15.6875 36.2490278,23.8493636 37.0841667,27.5523636 C37.1230556,27.6243636 37.1444444,27.7063636 37.1444444,27.7933636 C37.1444444,28.0733636 36.8819444,28.3073636 36.6486111,28.2943636 C36.5309722,28.2923636 36.4143056,28.2553636 36.3219444,28.1723636 C32.6625,24.9303636 27.624444,23 20.0722218,23 C19.3926384,23 18.0517806,22.9699707 18.0021973,23 C17.8155306,22.9699707 17,23 17,24.0025635 L17,30.5003636 C17,31.0625004 16.3554167,30.9633636 16.2669444,30.8873636 Z M16,29 L16,24 C16,23 16,22.00354 18,22.00354 C18.9361572,22.00354 19.0168007,22.00354 19.7449951,22.00354 C26.7780507,22.00354 30.8455811,23.0039063 35.5330811,26.0039063 C32.3455811,17.1601563 22.2458496,16.9986572 18,16.9986572 C16,16.9986572 16,16.0012206 16,15 L16,10 L4.65124512,19.5 L16,29 Z" id="Path" fill="#3BAFDA" sketch:type="MSShapeGroup"></path>
            </g>
        </g>
    </g>
</svg>