<?xml version="1.0" encoding="UTF-8" standalone="no"?>
<svg width="40px" height="40px" viewBox="0 0 40 40" version="1.1" xmlns="http://www.w3.org/2000/svg" xmlns:xlink="http://www.w3.org/1999/xlink" xmlns:sketch="http://www.bohemiancoding.com/sketch/ns">
    <!-- Generator: Sketch 3.2.2 (9983) - http://www.bohemiancoding.com/sketch -->
    <title>video_click</title>
    <desc>Created with Sketch.</desc>
    <defs></defs>
    <g id="save-svg" stroke="none" stroke-width="1" fill="none" fill-rule="evenodd" sketch:type="MSPage">
        <g id="video_click" sketch:type="MSArtboardGroup">
            <g id="icon_video-fill" sketch:type="MSLayerGroup">
                <rect id="Padding" sketch:type="MSShapeGroup" x="0" y="0" width="40" height="40"></rect>
                <path d="M1,12.8086612 C1,11.2574805 2.25688673,10 3.79504745,10 L23.2049525,10 C24.7486146,10 26,11.2458498 26,12.8086612 L26,29.1913388 C26,30.7425195 24.7431133,32 23.2049525,32 L3.79504745,32 C2.25138537,32 1,30.7541502 1,29.1913388 L1,12.8086612 Z M2,12.9907951 C2,11.8913093 2.90162726,11 4.00086422,11 L22.9991358,11 C24.1041826,11 25,11.8982124 25,12.9907951 L25,29.0092049 C25,30.1086907 24.0983727,31 22.9991358,31 L4.00086422,31 C2.89581743,31 2,30.1017876 2,29.0092049 L2,12.9907951 Z M38.447,11.105 C38.306,11.035 38.153,11 38,11 C37.788,11 37.577,11.068 37.4,11.2 L28.4,17.95 C28.148,18.139 28,18.435 28,18.75 L28,23.25 C28,23.565 28.148,23.861 28.4,24.05 L37.4,30.8 C37.577,30.932 37.788,31 38,31 C38.153,31 38.306,30.965 38.447,30.894 C38.786,30.725 39,30.379 39,30 L39,12 C39,11.621 38.786,11.275 38.447,11.105 Z M38,30 L29,23.25 L29,18.75 L38,12 L38,30 L38,30 Z" id="Rectangle-362" fill="#3BAFDA" sketch:type="MSShapeGroup"></path>
            </g>
        </g>
    </g>
</svg>